<?xml version="1.0" encoding="UTF-8"?>
<svg width="300px" height="72px" viewBox="0 0 300 72" version="1.1" xmlns="http://www.w3.org/2000/svg" xmlns:xlink="http://www.w3.org/1999/xlink">
    <title>fe-mobility-logo-white</title>
    <g id="Page-1" stroke="none" stroke-width="1" fill="none" fill-rule="evenodd">
        <g id="Mobility-Home-Web" transform="translate(-620.000000, -42.000000)">
            <g id="fe-mobility-logo-white" transform="translate(620.000000, 42.000000)">
                <path d="M41.663067,22.0950324 L23.3261339,5.83153348 C20.9287257,3.75809935 22.4838013,0.323974082 22.4838013,0.323974082 L22.1598272,0 L18.336933,4.7300216 C16.1987041,7.38660907 16.587473,11.2742981 19.1144708,13.4773218 L37.4514039,29.8056156 C39.8488121,31.8790497 38.2937365,35.3131749 38.2937365,35.3131749 L38.6825054,35.637149 L42.5053996,30.9071274 C44.5788337,28.25054 44.2548596,24.362851 41.663067,22.0950324 L41.663067,22.0950324 Z" id="Path" fill="#FF1204"></path>
                <path d="M33.2397408,32.5269978 L14.9028078,16.2634989 C12.4406048,14.1900648 14.0604752,10.7559395 14.0604752,10.7559395 L13.6717063,10.4967603 L9.8488121,15.161987 C7.71058315,17.8185745 8.03455724,21.7062635 10.6263499,23.9092873 L28.9632829,40.237581 C31.3606911,42.3110151 29.8056156,45.7451404 29.8056156,45.7451404 L30.1943844,46.0691145 L34.0172786,41.3390929 C36.1555076,38.6825054 35.8315335,34.7948164 33.2397408,32.5917927 L33.2397408,32.5269978 Z" id="Path" fill="#FF1204"></path>
                <path d="M24.7516199,42.9589633 L6.41468683,26.6954644 C4.01727862,24.6220302 5.57235421,21.187905 5.57235421,21.187905 L5.31317495,20.8639309 L1.36069114,25.5939525 C-0.712742981,28.25054 -0.388768898,32.1382289 2.20302376,34.3412527 L20.5399568,50.6047516 C22.937365,52.6781857 21.3822894,56.112311 21.3822894,56.112311 L21.7710583,56.4362851 L25.5939525,51.7062635 C27.7321814,49.049676 27.3434125,45.161987 24.7516199,42.9589633 L24.7516199,42.9589633 Z" id="Path" fill="#FF1204"></path>
                <g id="Group" transform="translate(51.835853, 0.000000)" fill="#FFFFFF" fill-rule="nonzero">
                    <g>
                        <polygon id="Path" points="0.518358531 0.0647948164 10.1727862 0.0647948164 10.1727862 3.11015119 4.40604752 3.11015119 4.40604752 6.73866091 9.00647948 6.73866091 9.00647948 9.58963283 4.40604752 9.58963283 4.40604752 13.7365011 10.4967603 13.7365011 10.4967603 16.8466523 0.518358531 16.8466523"></polygon>
                        <polygon id="Path" points="15.87473 8.22894168 11.9222462 0.0647948164 16.2634989 0.0647948164 18.5961123 5.5075594 20.9287257 0.0647948164 24.8812095 0.0647948164 21.1231102 8.03455724 25.3347732 16.7818575 20.9287257 16.7818575 18.2073434 10.6263499 15.5507559 16.8466523 11.5982721 16.8466523"></polygon>
                        <path d="M27.1490281,0.0647948164 L32.462203,0.0647948164 C34.4708423,0.0647948164 35.8963283,0.453563715 36.8682505,1.29589633 C37.8401728,2.13822894 38.2937365,3.36933045 38.2937365,5.05399568 L38.2937365,5.76673866 C38.2937365,7.38660907 37.775378,8.61771058 36.8034557,9.39524838 C35.8315335,10.1727862 34.4060475,10.5615551 32.5917927,10.5615551 L31.0367171,10.5615551 L31.0367171,16.8466523 L27.1490281,16.8466523 L27.1490281,0.0647948164 L27.1490281,0.0647948164 Z M32.3326134,7.84017279 C33.7580994,7.84017279 34.5356371,7.12742981 34.5356371,5.70194384 L34.5356371,5.05399568 C34.5356371,4.27645788 34.3412527,3.75809935 34.0172786,3.43412527 C33.6933045,3.11015119 33.1101512,2.98056156 32.3974082,2.98056156 L31.1015119,2.98056156 L31.1015119,7.77537797 L32.3326134,7.77537797 L32.3326134,7.84017279 Z" id="Shape"></path>
                        <path d="M40.237581,0.0647948164 L45.6803456,0.0647948164 C47.6241901,0.0647948164 49.1144708,0.453563715 50.0863931,1.23110151 C51.0583153,2.00863931 51.5766739,3.23974082 51.5766739,4.85961123 L51.5766739,5.44276458 C51.5766739,6.02591793 51.511879,6.54427646 51.3822894,6.99784017 C51.2526998,7.45140389 51.0583153,7.84017279 50.8639309,8.16414687 C50.6047516,8.48812095 50.3455724,8.74730022 50.0215983,9.00647948 C49.6976242,9.20086393 49.3736501,9.39524838 48.9848812,9.52483801 L52.3542117,16.7818575 L48.2721382,16.7818575 L45.3563715,10.237581 L44.0604752,10.237581 L44.0604752,16.8466523 L40.1727862,16.8466523 L40.1727862,0.0647948164 L40.237581,0.0647948164 Z M45.5507559,7.64578834 C46.3282937,7.64578834 46.8466523,7.5161987 47.2354212,7.19222462 C47.6241901,6.86825054 47.8185745,6.34989201 47.8185745,5.57235421 L47.8185745,4.98920086 C47.8185745,4.27645788 47.6241901,3.75809935 47.2354212,3.49892009 C46.8466523,3.174946 46.3282937,3.04535637 45.5507559,3.04535637 L44.0604752,3.04535637 L44.0604752,7.64578834 L45.5507559,7.64578834 L45.5507559,7.64578834 Z" id="Shape"></path>
                    </g>
                    <polygon id="Path" points="54.0388769 0.0647948164 63.6933045 0.0647948164 63.6933045 3.11015119 57.9265659 3.11015119 57.9265659 6.73866091 62.5269978 6.73866091 62.5269978 9.58963283 57.9265659 9.58963283 57.9265659 13.7365011 64.0172786 13.7365011 64.0172786 16.8466523 54.0388769 16.8466523"></polygon>
                    <path d="M71.4686825,17.1058315 C69.524838,17.1058315 68.0345572,16.6522678 67.062635,15.8099352 C66.0259179,14.9676026 65.5075594,13.6069114 65.4427646,11.8574514 L69.2008639,11.8574514 C69.2008639,12.699784 69.3952484,13.2829374 69.7192225,13.6717063 C70.0431965,14.0604752 70.6263499,14.2548596 71.4686825,14.2548596 C72.0518359,14.2548596 72.5701944,14.12527 72.8941685,13.8012959 C73.2181425,13.4773218 73.412527,13.0237581 73.412527,12.4406048 C73.412527,12.1166307 73.3477322,11.7926566 73.2829374,11.5982721 C73.1533477,11.3390929 73.0237581,11.1447084 72.8293737,10.950324 C72.6349892,10.7559395 72.3110151,10.6263499 71.987041,10.4967603 C71.663067,10.3671706 71.2742981,10.237581 70.7559395,10.1079914 C69.9136069,9.8488121 69.2008639,9.58963283 68.5529158,9.26565875 C67.9049676,8.94168467 67.4514039,8.61771058 66.9978402,8.22894168 C66.6090713,7.84017279 66.2850972,7.32181425 66.0907127,6.80345572 C65.8963283,6.22030238 65.7667387,5.57235421 65.7667387,4.79481641 C65.7667387,4.08207343 65.8963283,3.43412527 66.1555076,2.85097192 C66.4146868,2.26781857 66.7386609,1.74946004 67.2570194,1.36069114 C67.7105832,0.971922246 68.2937365,0.647948164 69.0064795,0.388768898 C69.6544276,0.194384449 70.4319654,0.0647948164 71.2742981,0.0647948164 C72.9589633,0.0647948164 74.3196544,0.453563715 75.2915767,1.23110151 C76.2634989,2.00863931 76.7818575,3.23974082 76.8466523,4.92440605 L73.2181425,4.92440605 C73.1533477,4.21166307 72.9589633,3.69330454 72.6349892,3.36933045 C72.3110151,3.04535637 71.8574514,2.91576674 71.2742981,2.91576674 C70.6911447,2.91576674 70.3023758,3.04535637 69.9784017,3.36933045 C69.6544276,3.62850972 69.524838,4.08207343 69.524838,4.53563715 C69.524838,4.79481641 69.5896328,5.05399568 69.6544276,5.24838013 C69.7192225,5.44276458 69.8488121,5.63714903 70.0431965,5.83153348 C70.237581,6.02591793 70.4967603,6.15550756 70.8207343,6.28509719 C71.1447084,6.41468683 71.5334773,6.54427646 72.0518359,6.73866091 C72.8293737,6.93304536 73.5421166,7.19222462 74.12527,7.45140389 C74.7084233,7.71058315 75.2915767,8.03455724 75.7451404,8.48812095 C76.1987041,8.87688985 76.5226782,9.39524838 76.7818575,9.97840173 C77.0410367,10.5615551 77.1706263,11.2742981 77.1706263,12.1814255 C77.1706263,13.7365011 76.6522678,14.9676026 75.6803456,15.9395248 C74.7084233,16.587473 73.2829374,17.1058315 71.4686825,17.1058315 Z" id="Path"></path>
                    <path d="M84.4924406,17.1058315 C82.5485961,17.1058315 81.0583153,16.6522678 80.0863931,15.8099352 C79.049676,14.9676026 78.5313175,13.6069114 78.4665227,11.8574514 L82.224622,11.8574514 C82.224622,12.699784 82.4190065,13.2829374 82.7429806,13.6717063 C83.0669546,14.0604752 83.650108,14.2548596 84.4924406,14.2548596 C85.075594,14.2548596 85.5939525,14.12527 85.9179266,13.8012959 C86.2419006,13.4773218 86.4362851,13.0237581 86.4362851,12.4406048 C86.4362851,12.1166307 86.3714903,11.7926566 86.3066955,11.5982721 C86.1771058,11.3390929 86.0475162,11.1447084 85.8531317,10.950324 C85.6587473,10.7559395 85.3347732,10.6263499 85.0107991,10.4967603 C84.6868251,10.3671706 84.2980562,10.237581 83.7796976,10.1079914 C82.937365,9.8488121 82.224622,9.58963283 81.5766739,9.26565875 C80.9287257,8.94168467 80.475162,8.61771058 80.0215983,8.22894168 C79.6328294,7.84017279 79.3088553,7.32181425 79.1144708,6.80345572 C78.9200864,6.22030238 78.7904968,5.57235421 78.7904968,4.79481641 C78.7904968,4.08207343 78.9200864,3.43412527 79.1792657,2.85097192 C79.4384449,2.26781857 79.762419,1.74946004 80.2807775,1.36069114 C80.7343413,0.971922246 81.3174946,0.647948164 82.0302376,0.388768898 C82.6781857,0.194384449 83.4557235,0.0647948164 84.2980562,0.0647948164 C85.9827214,0.0647948164 87.3434125,0.453563715 88.3153348,1.23110151 C89.287257,2.00863931 89.8056156,3.23974082 89.8704104,4.92440605 L86.1771058,4.92440605 C86.112311,4.21166307 85.9179266,3.69330454 85.5939525,3.36933045 C85.2699784,3.04535637 84.8164147,2.91576674 84.2332613,2.91576674 C83.650108,2.91576674 83.2613391,3.04535637 82.937365,3.36933045 C82.6133909,3.62850972 82.4838013,4.08207343 82.4838013,4.53563715 C82.4838013,4.79481641 82.5485961,5.05399568 82.6133909,5.24838013 C82.6781857,5.44276458 82.8077754,5.63714903 83.0021598,5.83153348 C83.1965443,6.02591793 83.4557235,6.15550756 83.7796976,6.28509719 C84.1036717,6.41468683 84.4924406,6.54427646 85.0107991,6.73866091 C85.7883369,6.93304536 86.5010799,7.19222462 87.0842333,7.45140389 C87.6673866,7.71058315 88.25054,8.03455724 88.7041037,8.48812095 C89.1576674,8.87688985 89.4816415,9.39524838 89.7408207,9.97840173 C90,10.5615551 90.1295896,11.2742981 90.1295896,12.1814255 C90.1295896,13.7365011 89.6112311,14.9676026 88.6393089,15.9395248 C87.6673866,16.587473 86.3066955,17.1058315 84.4924406,17.1058315 Z" id="Path"></path>
                </g>
                <path d="M90.9071274,24.1036717 C94.7948164,24.1036717 97.9049676,25.3347732 100.107991,27.7969762 C102.311015,30.2591793 103.477322,33.4989201 103.477322,37.5161987 L103.477322,57.2786177 C103.477322,57.7969762 103.088553,58.1857451 102.570194,58.1857451 L102.570194,58.1857451 L95.3779698,58.1857451 C94.8596112,58.1857451 94.4708423,57.7969762 94.4708423,57.2786177 L94.4708423,38.812095 C94.5356371,37.062635 93.9524838,35.3779698 92.8509719,34.0820734 C91.74946,32.9157667 90.1943844,32.2678186 88.574514,32.3326134 C86.9546436,32.2678186 85.3347732,32.9157667 84.1684665,34.0820734 C83.0021598,35.3131749 82.3542117,36.9330454 82.4190065,38.6177106 L82.4190065,57.2786177 C82.4190065,57.7969762 82.0302376,58.1857451 81.511879,58.1857451 C81.511879,58.1857451 81.511879,58.1857451 81.511879,58.1857451 L74.2548596,58.1857451 C73.7365011,58.1857451 73.3477322,57.7969762 73.3477322,57.2786177 L73.3477322,38.812095 C73.412527,37.062635 72.8293737,35.3779698 71.7278618,34.0820734 C70.6263499,32.9157667 69.0064795,32.2678186 67.3866091,32.3326134 C65.7019438,32.2678186 64.1468683,32.9157667 62.9805616,34.0820734 C61.8142549,35.3779698 61.2311015,37.062635 61.2958963,38.812095 L61.2958963,57.3434125 C61.2958963,57.8617711 60.9071274,58.25054 60.3887689,58.25054 L53.0021598,58.25054 C52.4838013,58.25054 52.0950324,57.8617711 52.0950324,57.3434125 L52.0950324,25.7883369 C52.0950324,25.2699784 52.4838013,24.8812095 53.0021598,24.8812095 L53.0021598,24.8812095 L59.4816415,24.8812095 C60,24.8812095 60.3887689,25.2699784 60.3887689,25.7883369 C60.3887689,25.7883369 60.3887689,25.7883369 60.3887689,25.7883369 L60.3887689,25.7883369 C60.3887689,26.3066955 60.7775378,26.7602592 61.2958963,26.7602592 C61.4902808,26.7602592 61.74946,26.6954644 61.9438445,26.5658747 C64.2764579,24.9460043 67.062635,24.1036717 69.8488121,24.1684665 C73.8660907,24.1684665 76.9114471,25.4643629 79.1144708,28.1209503 C79.4384449,28.5097192 80.0215983,28.574514 80.4103672,28.25054 C80.4103672,28.25054 80.475162,28.1857451 80.475162,28.1857451 C83.1965443,25.4643629 86.6306695,24.1036717 90.9071274,24.1036717 Z" id="Path" fill="#FFFFFF" fill-rule="nonzero"></path>
                <path d="M126.479482,24.1036717 C131.209503,24.0388769 135.74514,25.8531317 139.179266,29.1576674 C142.613391,32.3326134 144.557235,36.8682505 144.427646,41.5334773 C144.492441,46.1987041 142.613391,50.7343413 139.179266,53.9092873 C135.809935,57.2138229 131.209503,59.0280778 126.414687,58.9632829 C121.684665,59.0928726 117.149028,57.2786177 113.779698,53.9092873 C110.410367,50.6695464 108.466523,46.1339093 108.596112,41.4686825 C108.466523,36.8034557 110.410367,32.3326134 113.779698,29.0928726 C117.149028,25.8531317 121.74946,24.0388769 126.479482,24.1036717 Z M126.479482,32.3974082 C124.146868,32.3326134 121.87905,33.2397408 120.259179,34.9892009 C118.639309,36.8034557 117.732181,39.1360691 117.861771,41.5334773 C117.796976,43.9308855 118.639309,46.2634989 120.259179,48.012959 C123.693305,51.3822894 129.200864,51.3822894 132.634989,48.012959 C134.319654,46.2634989 135.161987,43.9308855 135.097192,41.5334773 C135.161987,39.1360691 134.25486,36.7386609 132.634989,34.9892009 C131.079914,33.3045356 128.812095,32.3326134 126.479482,32.3974082 L126.479482,32.3974082 Z" id="Shape" fill="#FFFFFF" fill-rule="nonzero"></path>
                <path d="M168.855292,24.1036717 C173.261339,23.9740821 177.537797,25.7883369 180.453564,29.0928726 C183.49892,32.3974082 184.989201,36.5442765 184.989201,41.5982721 C184.989201,46.6522678 183.49892,50.7991361 180.453564,54.1036717 C177.473002,57.3434125 173.261339,59.1576674 168.855292,59.0280778 C165.032397,59.0280778 161.987041,57.9913607 159.719222,55.8531317 C159.330454,55.5291577 158.7473,55.5291577 158.423326,55.9179266 C158.293737,56.112311 158.164147,56.3066955 158.164147,56.5010799 L158.164147,57.2786177 C158.164147,57.7969762 157.775378,58.1857451 157.257019,58.1857451 L157.257019,58.1857451 L150.777538,58.1857451 C150.259179,58.1857451 149.87041,57.7969762 149.87041,57.2786177 L149.87041,8.61771058 C149.87041,8.09935205 150.259179,7.71058315 150.777538,7.71058315 L150.777538,7.71058315 L157.969762,7.71058315 C158.488121,7.71058315 158.87689,8.09935205 158.87689,8.61771058 C158.87689,8.61771058 158.87689,8.61771058 158.87689,8.61771058 L158.87689,25.9827214 C158.87689,26.5010799 159.330454,26.8898488 159.848812,26.8898488 C160.043197,26.8898488 160.237581,26.825054 160.431965,26.6954644 C162.634989,25.0107991 165.421166,24.1684665 168.855292,24.1036717 Z M167.170626,50.7343413 C169.50324,50.7991361 171.706263,49.8920086 173.326134,48.2073434 C174.946004,46.5226782 175.788337,44.2548596 175.788337,41.5334773 C175.917927,39.0712743 175.010799,36.6738661 173.261339,34.924406 C169.956803,31.6198704 164.578834,31.5550756 161.144708,34.7948164 C159.524838,36.4146868 158.682505,38.6825054 158.682505,41.663067 C158.682505,44.6436285 159.524838,46.9114471 161.209503,48.5313175 C162.829374,49.9568035 164.967603,50.7991361 167.170626,50.7343413 Z" id="Shape" fill="#FFFFFF" fill-rule="nonzero"></path>
                <path d="M216.738661,8.61771058 L216.738661,57.2786177 C216.738661,57.7969762 216.349892,58.1857451 215.831533,58.1857451 L215.831533,58.1857451 L208.639309,58.1857451 C208.12095,58.1857451 207.732181,57.7969762 207.732181,57.2786177 L207.732181,8.61771058 C207.732181,8.09935205 208.12095,7.71058315 208.639309,7.71058315 L208.639309,7.71058315 L215.831533,7.71058315 C216.349892,7.71058315 216.738661,8.09935205 216.738661,8.61771058 Z" id="Path" fill="#FFFFFF" fill-rule="nonzero"></path>
                <path d="M258.401728,50.8639309 C258.855292,50.8639309 259.956803,50.7991361 261.706263,50.6695464 C262.224622,50.6047516 262.678186,50.9935205 262.678186,51.511879 C262.678186,51.511879 262.678186,51.5766739 262.678186,51.5766739 L262.678186,57.4730022 C262.678186,57.9265659 262.354212,58.3153348 261.965443,58.3801296 C260.151188,58.7688985 258.272138,59.0280778 256.393089,59.0280778 C252.181425,59.0280778 248.87689,57.9913607 246.544276,55.9179266 C244.211663,53.8444924 243.045356,50.6695464 243.045356,46.5226782 L243.045356,33.4989201 C243.045356,32.9805616 242.656587,32.5917927 242.138229,32.5917927 C242.138229,32.5917927 242.138229,32.5917927 242.138229,32.5917927 L238.768898,32.5917927 C238.25054,32.5917927 237.861771,32.2030238 237.861771,31.6846652 L237.861771,25.8531317 C237.861771,25.3347732 238.25054,24.9460043 238.768898,24.9460043 L238.768898,24.9460043 L242.138229,24.9460043 C242.656587,24.9460043 243.045356,24.5572354 243.045356,24.0388769 L243.045356,17.3650108 C243.045356,16.8466523 243.434125,16.4578834 243.952484,16.4578834 L243.952484,16.4578834 L251.144708,16.4578834 C251.663067,16.4578834 252.051836,16.8466523 252.051836,17.3650108 C252.051836,17.3650108 252.051836,17.3650108 252.051836,17.3650108 L252.051836,23.9740821 C252.051836,24.4924406 252.440605,24.8812095 252.958963,24.8812095 L260.539957,24.8812095 C261.058315,24.8812095 261.447084,25.2699784 261.447084,25.7883369 C261.447084,25.7883369 261.447084,25.7883369 261.447084,25.7883369 L261.447084,31.6198704 C261.447084,32.1382289 261.058315,32.5269978 260.539957,32.5269978 L260.539957,32.5269978 L253.023758,32.5269978 C252.5054,32.5269978 252.116631,32.9157667 252.116631,33.4341253 L252.116631,33.4341253 L252.116631,45.6155508 C252.116631,47.4946004 252.634989,48.8552916 253.606911,49.6328294 C254.578834,50.4103672 256.263499,50.8639309 258.401728,50.8639309 Z" id="Path" fill="#FFFFFF" fill-rule="nonzero"></path>
                <path d="M291.058315,24.8812095 L298.574514,24.8812095 C299.092873,24.8812095 299.481641,25.3347732 299.481641,25.7883369 C299.481641,25.9179266 299.481641,26.0475162 299.416847,26.1771058 L283.99568,61.1015119 C282.440605,64.5356371 280.62635,67.1274298 278.552916,68.7473002 C276.285097,70.4319654 273.563715,71.2742981 270.712743,71.1447084 C268.963283,71.1447084 267.213823,70.8855292 265.529158,70.4967603 C265.140389,70.3671706 264.816415,70.0431965 264.816415,69.5896328 L264.816415,63.7580994 C264.816415,63.2397408 265.269978,62.8509719 265.788337,62.8509719 C265.788337,62.8509719 265.853132,62.8509719 265.853132,62.8509719 C267.343413,62.9805616 268.315335,63.0453564 268.704104,63.0453564 C270.12959,63.1101512 271.555076,62.7861771 272.850972,62.0734341 C274.146868,61.2311015 275.11879,59.9352052 275.701944,58.5097192 L276.544276,56.5658747 C276.609071,56.3066955 276.609071,56.0475162 276.544276,55.8531317 L264.427646,26.1771058 C264.233261,25.7235421 264.427646,25.1403888 264.88121,24.9460043 C265.010799,24.8812095 265.140389,24.8812095 265.269978,24.8812095 L272.915767,24.8812095 C273.304536,24.8812095 273.62851,25.1403888 273.822894,25.4643629 L280.885529,44.5140389 C281.079914,44.9676026 281.598272,45.2267819 282.116631,45.0323974 C282.37581,44.9676026 282.570194,44.7732181 282.634989,44.5140389 L290.215983,25.4643629 C290.345572,25.1403888 290.669546,24.8812095 291.058315,24.8812095 Z" id="Path" fill="#FFFFFF" fill-rule="nonzero"></path>
                <g id="Group-63" transform="translate(196.344376, 33.210583) rotate(180.000000) translate(-196.344376, -33.210583) translate(189.844376, 7.710583)" fill-rule="nonzero">
                    <path d="M0.846768869,34.2116631 L0.846768869,0.90712743 C0.846768869,0.388768898 1.23553777,0 1.7538963,0 L1.7538963,0 L9.46447945,0 C9.98283798,0 10.3716069,0.388768898 10.3716069,0.90712743 C10.3716069,0.90712743 10.3716069,0.90712743 10.3716069,0.90712743 L10.3716069,34.2116631 C10.3716069,34.7300216 9.98283798,35.1187905 9.46447945,35.1187905 L9.46447945,35.1187905 L1.7538963,35.1187905 C1.30033258,35.1835853 0.846768869,34.7300216 0.846768869,34.2116631 Z" id="Path" fill="#FFFFFF"></path>
                    <path d="M10.4364017,49.049676 C9.270095,50.1511879 7.71501941,50.7991361 6.095149,50.7343413 C4.47527859,50.7343413 2.92020299,50.1511879 1.7538963,49.049676 C0.587589603,47.9481641 -0.0603585607,46.3930886 0.00443625575,44.7732181 C-0.0603585607,43.2181425 0.587589603,41.663067 1.7538963,40.5615551 C2.92020299,39.4600432 4.47527859,38.812095 6.095149,38.8768898 C7.71501941,38.8768898 9.270095,39.4600432 10.4364017,40.5615551 C11.6027084,41.5982721 12.2506566,43.1533477 12.2506566,44.7732181 C12.3154514,46.3930886 11.6675032,47.9481641 10.4364017,49.049676 Z" id="Path" fill="#FF1204"></path>
                </g>
                <g id="Group-64" transform="translate(229.000963, 33.210583) rotate(180.000000) translate(-229.000963, -33.210583) translate(222.500963, 7.710583)" fill-rule="nonzero">
                    <path d="M0.911563686,34.2116631 L0.911563686,0.90712743 C0.911563686,0.388768898 1.30033258,0 1.81869112,0 L1.81869112,0 L9.52927427,0 C10.0476328,0 10.4364017,0.388768898 10.4364017,0.90712743 C10.4364017,0.90712743 10.4364017,0.90712743 10.4364017,0.90712743 L10.4364017,34.2116631 C10.4364017,34.7300216 10.0476328,35.1187905 9.52927427,35.1187905 L9.52927427,35.1187905 L1.81869112,35.1187905 C1.3651274,35.1835853 0.911563686,34.7300216 0.911563686,34.2116631 Z" id="Path" fill="#FFFFFF"></path>
                    <path d="M10.5011965,49.049676 C9.33488982,50.1511879 7.77981423,50.7991361 6.095149,50.7343413 C4.47527859,50.7343413 2.92020299,50.1511879 1.7538963,49.049676 C0.587589603,47.9481641 -0.0603585607,46.3930886 0.00443625575,44.7732181 C0.00443625575,43.2181425 0.65238442,41.663067 1.7538963,40.5615551 C2.92020299,39.4600432 4.47527859,38.812095 6.095149,38.8768898 C7.71501941,38.8768898 9.270095,39.4600432 10.5011965,40.5615551 C11.6675032,41.663067 12.3154514,43.1533477 12.3154514,44.7732181 C12.3154514,46.3930886 11.6675032,47.9481641 10.5011965,49.049676 Z" id="Path" fill="#FF1204"></path>
                </g>
            </g>
        </g>
    </g>
</svg>